<mxfile host="app.diagrams.net" agent="Mozilla/5.0 (Windows NT 10.0; Win64; x64) AppleWebKit/537.36 (KHTML, like Gecko) Chrome/131.0.0.0 Safari/537.36 Edg/131.0.0.0" version="26.0.4">
  <diagram name="페이지-1" id="OTIgRREz1SAe0-DKxnem">
    <mxGraphModel dx="1224" dy="1133" grid="1" gridSize="10" guides="1" tooltips="1" connect="1" arrows="1" fold="1" page="1" pageScale="1" pageWidth="4681" pageHeight="3300" math="0" shadow="0">
      <root>
        <mxCell id="0" />
        <mxCell id="1" parent="0" />
        <mxCell id="MzUkzwH7Z7s86Nv9Jb5l-2" value="User:user" style="shape=umlLifeline;perimeter=lifelinePerimeter;whiteSpace=wrap;html=1;container=1;dropTarget=0;collapsible=0;recursiveResize=0;outlineConnect=0;portConstraint=eastwest;newEdgeStyle={&quot;edgeStyle&quot;:&quot;elbowEdgeStyle&quot;,&quot;elbow&quot;:&quot;vertical&quot;,&quot;curved&quot;:0,&quot;rounded&quot;:0};" parent="1" vertex="1">
          <mxGeometry x="100" y="80" width="100" height="600" as="geometry" />
        </mxCell>
        <mxCell id="MzUkzwH7Z7s86Nv9Jb5l-3" value="" style="html=1;points=[[0,0,0,0,5],[0,1,0,0,-5],[1,0,0,0,5],[1,1,0,0,-5]];perimeter=orthogonalPerimeter;outlineConnect=0;targetShapes=umlLifeline;portConstraint=eastwest;newEdgeStyle={&quot;curved&quot;:0,&quot;rounded&quot;:0};fillColor=#808080;" parent="MzUkzwH7Z7s86Nv9Jb5l-2" vertex="1">
          <mxGeometry x="45" y="90" width="10" height="480" as="geometry" />
        </mxCell>
        <mxCell id="MzUkzwH7Z7s86Nv9Jb5l-6" value="Socket:socket" style="shape=umlLifeline;perimeter=lifelinePerimeter;whiteSpace=wrap;html=1;container=1;dropTarget=0;collapsible=0;recursiveResize=0;outlineConnect=0;portConstraint=eastwest;newEdgeStyle={&quot;edgeStyle&quot;:&quot;elbowEdgeStyle&quot;,&quot;elbow&quot;:&quot;vertical&quot;,&quot;curved&quot;:0,&quot;rounded&quot;:0};" parent="1" vertex="1">
          <mxGeometry x="400" y="80" width="100" height="600" as="geometry" />
        </mxCell>
        <mxCell id="MzUkzwH7Z7s86Nv9Jb5l-7" value="" style="html=1;points=[[0,0,0,0,5],[0,1,0,0,-5],[1,0,0,0,5],[1,1,0,0,-5]];perimeter=orthogonalPerimeter;outlineConnect=0;targetShapes=umlLifeline;portConstraint=eastwest;newEdgeStyle={&quot;curved&quot;:0,&quot;rounded&quot;:0};fillColor=#808080;" parent="MzUkzwH7Z7s86Nv9Jb5l-6" vertex="1">
          <mxGeometry x="45" y="90" width="10" height="480" as="geometry" />
        </mxCell>
        <mxCell id="MzUkzwH7Z7s86Nv9Jb5l-8" value="Server:" style="shape=umlLifeline;perimeter=lifelinePerimeter;whiteSpace=wrap;html=1;container=1;dropTarget=0;collapsible=0;recursiveResize=0;outlineConnect=0;portConstraint=eastwest;newEdgeStyle={&quot;edgeStyle&quot;:&quot;elbowEdgeStyle&quot;,&quot;elbow&quot;:&quot;vertical&quot;,&quot;curved&quot;:0,&quot;rounded&quot;:0};" parent="1" vertex="1">
          <mxGeometry x="700" y="80" width="100" height="600" as="geometry" />
        </mxCell>
        <mxCell id="MzUkzwH7Z7s86Nv9Jb5l-9" value="" style="html=1;points=[[0,0,0,0,5],[0,1,0,0,-5],[1,0,0,0,5],[1,1,0,0,-5]];perimeter=orthogonalPerimeter;outlineConnect=0;targetShapes=umlLifeline;portConstraint=eastwest;newEdgeStyle={&quot;curved&quot;:0,&quot;rounded&quot;:0};fillColor=#808080;" parent="MzUkzwH7Z7s86Nv9Jb5l-8" vertex="1">
          <mxGeometry x="45" y="180" width="10" height="240" as="geometry" />
        </mxCell>
        <mxCell id="MzUkzwH7Z7s86Nv9Jb5l-10" value="DB:" style="shape=umlLifeline;perimeter=lifelinePerimeter;whiteSpace=wrap;html=1;container=1;dropTarget=0;collapsible=0;recursiveResize=0;outlineConnect=0;portConstraint=eastwest;newEdgeStyle={&quot;edgeStyle&quot;:&quot;elbowEdgeStyle&quot;,&quot;elbow&quot;:&quot;vertical&quot;,&quot;curved&quot;:0,&quot;rounded&quot;:0};" parent="1" vertex="1">
          <mxGeometry x="1000" y="80" width="100" height="600" as="geometry" />
        </mxCell>
        <mxCell id="MzUkzwH7Z7s86Nv9Jb5l-11" value="" style="html=1;points=[[0,0,0,0,5],[0,1,0,0,-5],[1,0,0,0,5],[1,1,0,0,-5]];perimeter=orthogonalPerimeter;outlineConnect=0;targetShapes=umlLifeline;portConstraint=eastwest;newEdgeStyle={&quot;curved&quot;:0,&quot;rounded&quot;:0};fillColor=#808080;" parent="MzUkzwH7Z7s86Nv9Jb5l-10" vertex="1">
          <mxGeometry x="45" y="180" width="10" height="120" as="geometry" />
        </mxCell>
        <mxCell id="MzUkzwH7Z7s86Nv9Jb5l-12" value="connection() Event" style="html=1;verticalAlign=bottom;labelBackgroundColor=none;endArrow=open;endFill=0;rounded=0;" parent="1" target="MzUkzwH7Z7s86Nv9Jb5l-6" edge="1">
          <mxGeometry x="0.0017" width="160" relative="1" as="geometry">
            <mxPoint x="150" y="200" as="sourcePoint" />
            <mxPoint x="310" y="200" as="targetPoint" />
            <mxPoint as="offset" />
          </mxGeometry>
        </mxCell>
        <mxCell id="MzUkzwH7Z7s86Nv9Jb5l-13" value="Response" style="html=1;verticalAlign=bottom;labelBackgroundColor=none;endArrow=open;endFill=0;dashed=1;rounded=0;" parent="1" edge="1">
          <mxGeometry width="160" relative="1" as="geometry">
            <mxPoint x="445" y="230" as="sourcePoint" />
            <mxPoint x="149.5" y="230" as="targetPoint" />
          </mxGeometry>
        </mxCell>
        <mxCell id="MzUkzwH7Z7s86Nv9Jb5l-14" value="chatList(uid) Event" style="html=1;verticalAlign=bottom;labelBackgroundColor=none;endArrow=open;endFill=0;rounded=0;" parent="1" edge="1">
          <mxGeometry width="160" relative="1" as="geometry">
            <mxPoint x="150" y="260" as="sourcePoint" />
            <mxPoint x="450" y="260" as="targetPoint" />
          </mxGeometry>
        </mxCell>
        <mxCell id="MzUkzwH7Z7s86Nv9Jb5l-15" value="getChatList(uid)" style="html=1;verticalAlign=bottom;labelBackgroundColor=none;endArrow=open;endFill=0;rounded=0;" parent="1" edge="1">
          <mxGeometry width="160" relative="1" as="geometry">
            <mxPoint x="450" y="290" as="sourcePoint" />
            <mxPoint x="750" y="290" as="targetPoint" />
          </mxGeometry>
        </mxCell>
        <mxCell id="MzUkzwH7Z7s86Nv9Jb5l-16" value="findById(uid)" style="html=1;verticalAlign=bottom;labelBackgroundColor=none;endArrow=open;endFill=0;rounded=0;" parent="1" edge="1">
          <mxGeometry width="160" relative="1" as="geometry">
            <mxPoint x="750" y="320" as="sourcePoint" />
            <mxPoint x="1050" y="320" as="targetPoint" />
          </mxGeometry>
        </mxCell>
        <mxCell id="MzUkzwH7Z7s86Nv9Jb5l-17" value="Response" style="html=1;verticalAlign=bottom;labelBackgroundColor=none;endArrow=open;endFill=0;dashed=1;rounded=0;" parent="1" edge="1">
          <mxGeometry width="160" relative="1" as="geometry">
            <mxPoint x="1045.5" y="360" as="sourcePoint" />
            <mxPoint x="750" y="360" as="targetPoint" />
          </mxGeometry>
        </mxCell>
        <mxCell id="MzUkzwH7Z7s86Nv9Jb5l-20" value="채팅방 목록에 입장 및 새로고침 use case" style="shape=umlFrame;whiteSpace=wrap;html=1;pointerEvents=0;recursiveResize=0;container=1;collapsible=0;width=290;height=30;" parent="1" vertex="1">
          <mxGeometry x="40" y="40" width="1120" height="720" as="geometry" />
        </mxCell>
        <mxCell id="MzUkzwH7Z7s86Nv9Jb5l-128" value="recentlyUnreadMessages&lt;br&gt;자료구조 변경" style="html=1;verticalAlign=bottom;labelBackgroundColor=none;endArrow=open;endFill=0;rounded=0;" parent="MzUkzwH7Z7s86Nv9Jb5l-20" edge="1">
          <mxGeometry x="0.55" y="-10" width="160" relative="1" as="geometry">
            <mxPoint x="715" y="360" as="sourcePoint" />
            <mxPoint x="715" y="410" as="targetPoint" />
            <Array as="points">
              <mxPoint x="890" y="360" />
              <mxPoint x="890" y="410" />
            </Array>
            <mxPoint as="offset" />
          </mxGeometry>
        </mxCell>
        <mxCell id="MzUkzwH7Z7s86Nv9Jb5l-18" value="Response" style="html=1;verticalAlign=bottom;labelBackgroundColor=none;endArrow=open;endFill=0;dashed=1;rounded=0;" parent="MzUkzwH7Z7s86Nv9Jb5l-20" edge="1">
          <mxGeometry width="160" relative="1" as="geometry">
            <mxPoint x="700.5" y="450" as="sourcePoint" />
            <mxPoint x="405" y="450" as="targetPoint" />
          </mxGeometry>
        </mxCell>
        <mxCell id="MzUkzwH7Z7s86Nv9Jb5l-19" value="Response" style="html=1;verticalAlign=bottom;labelBackgroundColor=none;endArrow=open;endFill=0;dashed=1;rounded=0;" parent="MzUkzwH7Z7s86Nv9Jb5l-20" edge="1">
          <mxGeometry width="160" relative="1" as="geometry">
            <mxPoint x="405.5" y="490" as="sourcePoint" />
            <mxPoint x="110" y="490" as="targetPoint" />
          </mxGeometry>
        </mxCell>
        <mxCell id="MzUkzwH7Z7s86Nv9Jb5l-21" value="User:user" style="shape=umlLifeline;perimeter=lifelinePerimeter;whiteSpace=wrap;html=1;container=1;dropTarget=0;collapsible=0;recursiveResize=0;outlineConnect=0;portConstraint=eastwest;newEdgeStyle={&quot;edgeStyle&quot;:&quot;elbowEdgeStyle&quot;,&quot;elbow&quot;:&quot;vertical&quot;,&quot;curved&quot;:0,&quot;rounded&quot;:0};" parent="1" vertex="1">
          <mxGeometry x="1260" y="80" width="100" height="600" as="geometry" />
        </mxCell>
        <mxCell id="MzUkzwH7Z7s86Nv9Jb5l-22" value="" style="html=1;points=[[0,0,0,0,5],[0,1,0,0,-5],[1,0,0,0,5],[1,1,0,0,-5]];perimeter=orthogonalPerimeter;outlineConnect=0;targetShapes=umlLifeline;portConstraint=eastwest;newEdgeStyle={&quot;curved&quot;:0,&quot;rounded&quot;:0};fillColor=#808080;" parent="MzUkzwH7Z7s86Nv9Jb5l-21" vertex="1">
          <mxGeometry x="45" y="90" width="10" height="480" as="geometry" />
        </mxCell>
        <mxCell id="MzUkzwH7Z7s86Nv9Jb5l-23" value="Socket:socket" style="shape=umlLifeline;perimeter=lifelinePerimeter;whiteSpace=wrap;html=1;container=1;dropTarget=0;collapsible=0;recursiveResize=0;outlineConnect=0;portConstraint=eastwest;newEdgeStyle={&quot;edgeStyle&quot;:&quot;elbowEdgeStyle&quot;,&quot;elbow&quot;:&quot;vertical&quot;,&quot;curved&quot;:0,&quot;rounded&quot;:0};" parent="1" vertex="1">
          <mxGeometry x="1560" y="80" width="100" height="600" as="geometry" />
        </mxCell>
        <mxCell id="MzUkzwH7Z7s86Nv9Jb5l-24" value="" style="html=1;points=[[0,0,0,0,5],[0,1,0,0,-5],[1,0,0,0,5],[1,1,0,0,-5]];perimeter=orthogonalPerimeter;outlineConnect=0;targetShapes=umlLifeline;portConstraint=eastwest;newEdgeStyle={&quot;curved&quot;:0,&quot;rounded&quot;:0};fillColor=#808080;" parent="MzUkzwH7Z7s86Nv9Jb5l-23" vertex="1">
          <mxGeometry x="45" y="90" width="10" height="480" as="geometry" />
        </mxCell>
        <mxCell id="MzUkzwH7Z7s86Nv9Jb5l-25" value="Server:" style="shape=umlLifeline;perimeter=lifelinePerimeter;whiteSpace=wrap;html=1;container=1;dropTarget=0;collapsible=0;recursiveResize=0;outlineConnect=0;portConstraint=eastwest;newEdgeStyle={&quot;edgeStyle&quot;:&quot;elbowEdgeStyle&quot;,&quot;elbow&quot;:&quot;vertical&quot;,&quot;curved&quot;:0,&quot;rounded&quot;:0};" parent="1" vertex="1">
          <mxGeometry x="1860" y="80" width="100" height="600" as="geometry" />
        </mxCell>
        <mxCell id="MzUkzwH7Z7s86Nv9Jb5l-26" value="" style="html=1;points=[[0,0,0,0,5],[0,1,0,0,-5],[1,0,0,0,5],[1,1,0,0,-5]];perimeter=orthogonalPerimeter;outlineConnect=0;targetShapes=umlLifeline;portConstraint=eastwest;newEdgeStyle={&quot;curved&quot;:0,&quot;rounded&quot;:0};fillColor=#808080;" parent="MzUkzwH7Z7s86Nv9Jb5l-25" vertex="1">
          <mxGeometry x="45" y="180" width="10" height="240" as="geometry" />
        </mxCell>
        <mxCell id="MzUkzwH7Z7s86Nv9Jb5l-27" value="DB:" style="shape=umlLifeline;perimeter=lifelinePerimeter;whiteSpace=wrap;html=1;container=1;dropTarget=0;collapsible=0;recursiveResize=0;outlineConnect=0;portConstraint=eastwest;newEdgeStyle={&quot;edgeStyle&quot;:&quot;elbowEdgeStyle&quot;,&quot;elbow&quot;:&quot;vertical&quot;,&quot;curved&quot;:0,&quot;rounded&quot;:0};" parent="1" vertex="1">
          <mxGeometry x="2160" y="80" width="100" height="600" as="geometry" />
        </mxCell>
        <mxCell id="MzUkzwH7Z7s86Nv9Jb5l-28" value="" style="html=1;points=[[0,0,0,0,5],[0,1,0,0,-5],[1,0,0,0,5],[1,1,0,0,-5]];perimeter=orthogonalPerimeter;outlineConnect=0;targetShapes=umlLifeline;portConstraint=eastwest;newEdgeStyle={&quot;curved&quot;:0,&quot;rounded&quot;:0};fillColor=#808080;" parent="MzUkzwH7Z7s86Nv9Jb5l-27" vertex="1">
          <mxGeometry x="45" y="180" width="10" height="120" as="geometry" />
        </mxCell>
        <mxCell id="MzUkzwH7Z7s86Nv9Jb5l-29" value="connection() Event" style="html=1;verticalAlign=bottom;labelBackgroundColor=none;endArrow=open;endFill=0;rounded=0;" parent="1" target="MzUkzwH7Z7s86Nv9Jb5l-23" edge="1">
          <mxGeometry x="0.0017" width="160" relative="1" as="geometry">
            <mxPoint x="1310" y="200" as="sourcePoint" />
            <mxPoint x="1470" y="200" as="targetPoint" />
            <mxPoint as="offset" />
          </mxGeometry>
        </mxCell>
        <mxCell id="MzUkzwH7Z7s86Nv9Jb5l-30" value="Response" style="html=1;verticalAlign=bottom;labelBackgroundColor=none;endArrow=open;endFill=0;dashed=1;rounded=0;" parent="1" edge="1">
          <mxGeometry width="160" relative="1" as="geometry">
            <mxPoint x="1605" y="230" as="sourcePoint" />
            <mxPoint x="1309.5" y="230" as="targetPoint" />
          </mxGeometry>
        </mxCell>
        <mxCell id="MzUkzwH7Z7s86Nv9Jb5l-31" value="enterRoom(roomid, uid) Event" style="html=1;verticalAlign=bottom;labelBackgroundColor=none;endArrow=open;endFill=0;rounded=0;" parent="1" edge="1">
          <mxGeometry width="160" relative="1" as="geometry">
            <mxPoint x="1310" y="260" as="sourcePoint" />
            <mxPoint x="1610" y="260" as="targetPoint" />
          </mxGeometry>
        </mxCell>
        <mxCell id="MzUkzwH7Z7s86Nv9Jb5l-33" value="findById(roomid)" style="html=1;verticalAlign=bottom;labelBackgroundColor=none;endArrow=open;endFill=0;rounded=0;" parent="1" edge="1">
          <mxGeometry width="160" relative="1" as="geometry">
            <mxPoint x="1910" y="320" as="sourcePoint" />
            <mxPoint x="2210" y="320" as="targetPoint" />
          </mxGeometry>
        </mxCell>
        <mxCell id="MzUkzwH7Z7s86Nv9Jb5l-34" value="Response" style="html=1;verticalAlign=bottom;labelBackgroundColor=none;endArrow=open;endFill=0;dashed=1;rounded=0;" parent="1" edge="1">
          <mxGeometry width="160" relative="1" as="geometry">
            <mxPoint x="2205.5" y="360" as="sourcePoint" />
            <mxPoint x="1910" y="360" as="targetPoint" />
          </mxGeometry>
        </mxCell>
        <mxCell id="MzUkzwH7Z7s86Nv9Jb5l-37" value="채팅방에 입장 use case" style="shape=umlFrame;whiteSpace=wrap;html=1;pointerEvents=0;recursiveResize=0;container=1;collapsible=0;width=290;height=30;" parent="1" vertex="1">
          <mxGeometry x="1200" y="40" width="1120" height="720" as="geometry" />
        </mxCell>
        <mxCell id="MzUkzwH7Z7s86Nv9Jb5l-38" value="enterRoom(roomid, uid) Event" style="html=1;verticalAlign=bottom;labelBackgroundColor=none;endArrow=open;endFill=0;rounded=0;" parent="MzUkzwH7Z7s86Nv9Jb5l-37" edge="1">
          <mxGeometry width="160" relative="1" as="geometry">
            <mxPoint x="410" y="260" as="sourcePoint" />
            <mxPoint x="710" y="260" as="targetPoint" />
          </mxGeometry>
        </mxCell>
        <mxCell id="MzUkzwH7Z7s86Nv9Jb5l-40" value="&lt;br&gt;Validation&lt;br&gt;(roomid.user == uid)" style="html=1;verticalAlign=bottom;labelBackgroundColor=none;endArrow=open;endFill=0;rounded=0;" parent="MzUkzwH7Z7s86Nv9Jb5l-37" edge="1">
          <mxGeometry x="0.55" y="-10" width="160" relative="1" as="geometry">
            <mxPoint x="710" y="360" as="sourcePoint" />
            <mxPoint x="710" y="410" as="targetPoint" />
            <Array as="points">
              <mxPoint x="885" y="360" />
              <mxPoint x="885" y="410" />
            </Array>
            <mxPoint as="offset" />
          </mxGeometry>
        </mxCell>
        <mxCell id="MzUkzwH7Z7s86Nv9Jb5l-36" value="Response" style="html=1;verticalAlign=bottom;labelBackgroundColor=none;endArrow=open;endFill=0;dashed=1;rounded=0;" parent="MzUkzwH7Z7s86Nv9Jb5l-37" edge="1">
          <mxGeometry width="160" relative="1" as="geometry">
            <mxPoint x="405.5" y="490" as="sourcePoint" />
            <mxPoint x="110" y="490" as="targetPoint" />
          </mxGeometry>
        </mxCell>
        <mxCell id="MzUkzwH7Z7s86Nv9Jb5l-35" value="Response" style="html=1;verticalAlign=bottom;labelBackgroundColor=none;endArrow=open;endFill=0;dashed=1;rounded=0;" parent="MzUkzwH7Z7s86Nv9Jb5l-37" edge="1">
          <mxGeometry width="160" relative="1" as="geometry">
            <mxPoint x="707.75" y="450" as="sourcePoint" />
            <mxPoint x="412.25" y="450" as="targetPoint" />
          </mxGeometry>
        </mxCell>
        <mxCell id="MzUkzwH7Z7s86Nv9Jb5l-41" value="User:user" style="shape=umlLifeline;perimeter=lifelinePerimeter;whiteSpace=wrap;html=1;container=1;dropTarget=0;collapsible=0;recursiveResize=0;outlineConnect=0;portConstraint=eastwest;newEdgeStyle={&quot;edgeStyle&quot;:&quot;elbowEdgeStyle&quot;,&quot;elbow&quot;:&quot;vertical&quot;,&quot;curved&quot;:0,&quot;rounded&quot;:0};" parent="1" vertex="1">
          <mxGeometry x="100" y="840" width="100" height="600" as="geometry" />
        </mxCell>
        <mxCell id="MzUkzwH7Z7s86Nv9Jb5l-42" value="" style="html=1;points=[[0,0,0,0,5],[0,1,0,0,-5],[1,0,0,0,5],[1,1,0,0,-5]];perimeter=orthogonalPerimeter;outlineConnect=0;targetShapes=umlLifeline;portConstraint=eastwest;newEdgeStyle={&quot;curved&quot;:0,&quot;rounded&quot;:0};fillColor=#808080;" parent="MzUkzwH7Z7s86Nv9Jb5l-41" vertex="1">
          <mxGeometry x="45" y="90" width="10" height="480" as="geometry" />
        </mxCell>
        <mxCell id="MzUkzwH7Z7s86Nv9Jb5l-43" value="Socket:socket" style="shape=umlLifeline;perimeter=lifelinePerimeter;whiteSpace=wrap;html=1;container=1;dropTarget=0;collapsible=0;recursiveResize=0;outlineConnect=0;portConstraint=eastwest;newEdgeStyle={&quot;edgeStyle&quot;:&quot;elbowEdgeStyle&quot;,&quot;elbow&quot;:&quot;vertical&quot;,&quot;curved&quot;:0,&quot;rounded&quot;:0};" parent="1" vertex="1">
          <mxGeometry x="400" y="840" width="100" height="600" as="geometry" />
        </mxCell>
        <mxCell id="MzUkzwH7Z7s86Nv9Jb5l-44" value="" style="html=1;points=[[0,0,0,0,5],[0,1,0,0,-5],[1,0,0,0,5],[1,1,0,0,-5]];perimeter=orthogonalPerimeter;outlineConnect=0;targetShapes=umlLifeline;portConstraint=eastwest;newEdgeStyle={&quot;curved&quot;:0,&quot;rounded&quot;:0};fillColor=#808080;" parent="MzUkzwH7Z7s86Nv9Jb5l-43" vertex="1">
          <mxGeometry x="45" y="90" width="10" height="480" as="geometry" />
        </mxCell>
        <mxCell id="MzUkzwH7Z7s86Nv9Jb5l-45" value="Server:" style="shape=umlLifeline;perimeter=lifelinePerimeter;whiteSpace=wrap;html=1;container=1;dropTarget=0;collapsible=0;recursiveResize=0;outlineConnect=0;portConstraint=eastwest;newEdgeStyle={&quot;edgeStyle&quot;:&quot;elbowEdgeStyle&quot;,&quot;elbow&quot;:&quot;vertical&quot;,&quot;curved&quot;:0,&quot;rounded&quot;:0};" parent="1" vertex="1">
          <mxGeometry x="700" y="840" width="100" height="600" as="geometry" />
        </mxCell>
        <mxCell id="MzUkzwH7Z7s86Nv9Jb5l-46" value="" style="html=1;points=[[0,0,0,0,5],[0,1,0,0,-5],[1,0,0,0,5],[1,1,0,0,-5]];perimeter=orthogonalPerimeter;outlineConnect=0;targetShapes=umlLifeline;portConstraint=eastwest;newEdgeStyle={&quot;curved&quot;:0,&quot;rounded&quot;:0};fillColor=#808080;" parent="MzUkzwH7Z7s86Nv9Jb5l-45" vertex="1">
          <mxGeometry x="45" y="180" width="10" height="300" as="geometry" />
        </mxCell>
        <mxCell id="MzUkzwH7Z7s86Nv9Jb5l-47" value="DB:" style="shape=umlLifeline;perimeter=lifelinePerimeter;whiteSpace=wrap;html=1;container=1;dropTarget=0;collapsible=0;recursiveResize=0;outlineConnect=0;portConstraint=eastwest;newEdgeStyle={&quot;edgeStyle&quot;:&quot;elbowEdgeStyle&quot;,&quot;elbow&quot;:&quot;vertical&quot;,&quot;curved&quot;:0,&quot;rounded&quot;:0};" parent="1" vertex="1">
          <mxGeometry x="1000" y="840" width="100" height="600" as="geometry" />
        </mxCell>
        <mxCell id="MzUkzwH7Z7s86Nv9Jb5l-48" value="" style="html=1;points=[[0,0,0,0,5],[0,1,0,0,-5],[1,0,0,0,5],[1,1,0,0,-5]];perimeter=orthogonalPerimeter;outlineConnect=0;targetShapes=umlLifeline;portConstraint=eastwest;newEdgeStyle={&quot;curved&quot;:0,&quot;rounded&quot;:0};fillColor=#808080;" parent="MzUkzwH7Z7s86Nv9Jb5l-47" vertex="1">
          <mxGeometry x="45" y="180" width="10" height="120" as="geometry" />
        </mxCell>
        <mxCell id="MzUkzwH7Z7s86Nv9Jb5l-49" value="connection() Event" style="html=1;verticalAlign=bottom;labelBackgroundColor=none;endArrow=open;endFill=0;rounded=0;" parent="1" target="MzUkzwH7Z7s86Nv9Jb5l-43" edge="1">
          <mxGeometry x="0.0017" width="160" relative="1" as="geometry">
            <mxPoint x="150" y="960" as="sourcePoint" />
            <mxPoint x="310" y="960" as="targetPoint" />
            <mxPoint as="offset" />
          </mxGeometry>
        </mxCell>
        <mxCell id="MzUkzwH7Z7s86Nv9Jb5l-50" value="Response" style="html=1;verticalAlign=bottom;labelBackgroundColor=none;endArrow=open;endFill=0;dashed=1;rounded=0;" parent="1" edge="1">
          <mxGeometry width="160" relative="1" as="geometry">
            <mxPoint x="445" y="990" as="sourcePoint" />
            <mxPoint x="149.5" y="990" as="targetPoint" />
          </mxGeometry>
        </mxCell>
        <mxCell id="MzUkzwH7Z7s86Nv9Jb5l-51" value="sendChat(text, uid, roomid)" style="html=1;verticalAlign=bottom;labelBackgroundColor=none;endArrow=open;endFill=0;rounded=0;" parent="1" edge="1">
          <mxGeometry width="160" relative="1" as="geometry">
            <mxPoint x="150" y="1020" as="sourcePoint" />
            <mxPoint x="450" y="1020" as="targetPoint" />
          </mxGeometry>
        </mxCell>
        <mxCell id="MzUkzwH7Z7s86Nv9Jb5l-52" value="sendChat(text, uid, roomid)" style="html=1;verticalAlign=bottom;labelBackgroundColor=none;endArrow=open;endFill=0;rounded=0;" parent="1" edge="1">
          <mxGeometry width="160" relative="1" as="geometry">
            <mxPoint x="450" y="1050" as="sourcePoint" />
            <mxPoint x="750" y="1050" as="targetPoint" />
          </mxGeometry>
        </mxCell>
        <mxCell id="MzUkzwH7Z7s86Nv9Jb5l-53" value="findByIdAndUpdate(roomid)" style="html=1;verticalAlign=bottom;labelBackgroundColor=none;endArrow=open;endFill=0;rounded=0;" parent="1" edge="1">
          <mxGeometry width="160" relative="1" as="geometry">
            <mxPoint x="750" y="1080" as="sourcePoint" />
            <mxPoint x="1050" y="1080" as="targetPoint" />
          </mxGeometry>
        </mxCell>
        <mxCell id="MzUkzwH7Z7s86Nv9Jb5l-54" value="Response" style="html=1;verticalAlign=bottom;labelBackgroundColor=none;endArrow=open;endFill=0;dashed=1;rounded=0;" parent="1" edge="1">
          <mxGeometry width="160" relative="1" as="geometry">
            <mxPoint x="1045.5" y="1120" as="sourcePoint" />
            <mxPoint x="750" y="1120" as="targetPoint" />
          </mxGeometry>
        </mxCell>
        <mxCell id="MzUkzwH7Z7s86Nv9Jb5l-55" value="Response" style="html=1;verticalAlign=bottom;labelBackgroundColor=none;endArrow=open;endFill=0;dashed=1;rounded=0;" parent="1" edge="1">
          <mxGeometry width="160" relative="1" as="geometry">
            <mxPoint x="745.5" y="1160" as="sourcePoint" />
            <mxPoint x="450" y="1160" as="targetPoint" />
          </mxGeometry>
        </mxCell>
        <mxCell id="MzUkzwH7Z7s86Nv9Jb5l-56" value="Response(채팅방에 참여한 인원 수 반환)" style="html=1;verticalAlign=bottom;labelBackgroundColor=none;endArrow=open;endFill=0;dashed=1;rounded=0;" parent="1" edge="1">
          <mxGeometry width="160" relative="1" as="geometry">
            <mxPoint x="445.5" y="1200" as="sourcePoint" />
            <mxPoint x="150" y="1200" as="targetPoint" />
          </mxGeometry>
        </mxCell>
        <mxCell id="MzUkzwH7Z7s86Nv9Jb5l-57" value="채팅 전송 use case" style="shape=umlFrame;whiteSpace=wrap;html=1;pointerEvents=0;recursiveResize=0;container=1;collapsible=0;width=290;height=30;" parent="1" vertex="1">
          <mxGeometry x="40" y="800" width="1120" height="720" as="geometry" />
        </mxCell>
        <mxCell id="MzUkzwH7Z7s86Nv9Jb5l-58" value="Ref" style="shape=umlFrame;whiteSpace=wrap;html=1;pointerEvents=0;recursiveResize=0;container=1;collapsible=0;width=80;height=30;" parent="MzUkzwH7Z7s86Nv9Jb5l-57" vertex="1">
          <mxGeometry x="485" y="450" width="150" height="100" as="geometry" />
        </mxCell>
        <mxCell id="MzUkzwH7Z7s86Nv9Jb5l-59" value="채팅 수신 use case" style="text;html=1;align=center;verticalAlign=middle;resizable=0;points=[];autosize=1;strokeColor=none;fillColor=none;" parent="MzUkzwH7Z7s86Nv9Jb5l-58" vertex="1">
          <mxGeometry x="15" y="35" width="120" height="30" as="geometry" />
        </mxCell>
        <mxCell id="MzUkzwH7Z7s86Nv9Jb5l-61" value="broadcast(roomid, text)" style="html=1;verticalAlign=bottom;labelBackgroundColor=none;endArrow=open;endFill=0;rounded=0;entryX=0.033;entryY=0.6;entryDx=0;entryDy=0;entryPerimeter=0;" parent="MzUkzwH7Z7s86Nv9Jb5l-57" target="MzUkzwH7Z7s86Nv9Jb5l-58" edge="1">
          <mxGeometry x="1" y="70" width="160" relative="1" as="geometry">
            <mxPoint x="410" y="510" as="sourcePoint" />
            <mxPoint x="480" y="510" as="targetPoint" />
            <mxPoint as="offset" />
          </mxGeometry>
        </mxCell>
        <mxCell id="MzUkzwH7Z7s86Nv9Jb5l-62" value="User:user" style="shape=umlLifeline;perimeter=lifelinePerimeter;whiteSpace=wrap;html=1;container=1;dropTarget=0;collapsible=0;recursiveResize=0;outlineConnect=0;portConstraint=eastwest;newEdgeStyle={&quot;edgeStyle&quot;:&quot;elbowEdgeStyle&quot;,&quot;elbow&quot;:&quot;vertical&quot;,&quot;curved&quot;:0,&quot;rounded&quot;:0};" parent="1" vertex="1">
          <mxGeometry x="1260" y="840" width="100" height="600" as="geometry" />
        </mxCell>
        <mxCell id="MzUkzwH7Z7s86Nv9Jb5l-63" value="" style="html=1;points=[[0,0,0,0,5],[0,1,0,0,-5],[1,0,0,0,5],[1,1,0,0,-5]];perimeter=orthogonalPerimeter;outlineConnect=0;targetShapes=umlLifeline;portConstraint=eastwest;newEdgeStyle={&quot;curved&quot;:0,&quot;rounded&quot;:0};fillColor=#808080;" parent="MzUkzwH7Z7s86Nv9Jb5l-62" vertex="1">
          <mxGeometry x="45" y="90" width="10" height="480" as="geometry" />
        </mxCell>
        <mxCell id="MzUkzwH7Z7s86Nv9Jb5l-64" value="Socket:socket" style="shape=umlLifeline;perimeter=lifelinePerimeter;whiteSpace=wrap;html=1;container=1;dropTarget=0;collapsible=0;recursiveResize=0;outlineConnect=0;portConstraint=eastwest;newEdgeStyle={&quot;edgeStyle&quot;:&quot;elbowEdgeStyle&quot;,&quot;elbow&quot;:&quot;vertical&quot;,&quot;curved&quot;:0,&quot;rounded&quot;:0};" parent="1" vertex="1">
          <mxGeometry x="1560" y="840" width="100" height="600" as="geometry" />
        </mxCell>
        <mxCell id="MzUkzwH7Z7s86Nv9Jb5l-65" value="" style="html=1;points=[[0,0,0,0,5],[0,1,0,0,-5],[1,0,0,0,5],[1,1,0,0,-5]];perimeter=orthogonalPerimeter;outlineConnect=0;targetShapes=umlLifeline;portConstraint=eastwest;newEdgeStyle={&quot;curved&quot;:0,&quot;rounded&quot;:0};fillColor=#808080;" parent="MzUkzwH7Z7s86Nv9Jb5l-64" vertex="1">
          <mxGeometry x="45" y="90" width="10" height="480" as="geometry" />
        </mxCell>
        <mxCell id="MzUkzwH7Z7s86Nv9Jb5l-66" value="Server:" style="shape=umlLifeline;perimeter=lifelinePerimeter;whiteSpace=wrap;html=1;container=1;dropTarget=0;collapsible=0;recursiveResize=0;outlineConnect=0;portConstraint=eastwest;newEdgeStyle={&quot;edgeStyle&quot;:&quot;elbowEdgeStyle&quot;,&quot;elbow&quot;:&quot;vertical&quot;,&quot;curved&quot;:0,&quot;rounded&quot;:0};" parent="1" vertex="1">
          <mxGeometry x="1860" y="840" width="100" height="600" as="geometry" />
        </mxCell>
        <mxCell id="MzUkzwH7Z7s86Nv9Jb5l-67" value="" style="html=1;points=[[0,0,0,0,5],[0,1,0,0,-5],[1,0,0,0,5],[1,1,0,0,-5]];perimeter=orthogonalPerimeter;outlineConnect=0;targetShapes=umlLifeline;portConstraint=eastwest;newEdgeStyle={&quot;curved&quot;:0,&quot;rounded&quot;:0};fillColor=#808080;" parent="MzUkzwH7Z7s86Nv9Jb5l-66" vertex="1">
          <mxGeometry x="45" y="180" width="10" height="300" as="geometry" />
        </mxCell>
        <mxCell id="MzUkzwH7Z7s86Nv9Jb5l-68" value="DB:" style="shape=umlLifeline;perimeter=lifelinePerimeter;whiteSpace=wrap;html=1;container=1;dropTarget=0;collapsible=0;recursiveResize=0;outlineConnect=0;portConstraint=eastwest;newEdgeStyle={&quot;edgeStyle&quot;:&quot;elbowEdgeStyle&quot;,&quot;elbow&quot;:&quot;vertical&quot;,&quot;curved&quot;:0,&quot;rounded&quot;:0};" parent="1" vertex="1">
          <mxGeometry x="2160" y="840" width="100" height="600" as="geometry" />
        </mxCell>
        <mxCell id="MzUkzwH7Z7s86Nv9Jb5l-69" value="" style="html=1;points=[[0,0,0,0,5],[0,1,0,0,-5],[1,0,0,0,5],[1,1,0,0,-5]];perimeter=orthogonalPerimeter;outlineConnect=0;targetShapes=umlLifeline;portConstraint=eastwest;newEdgeStyle={&quot;curved&quot;:0,&quot;rounded&quot;:0};fillColor=#808080;" parent="MzUkzwH7Z7s86Nv9Jb5l-68" vertex="1">
          <mxGeometry x="45" y="180" width="10" height="120" as="geometry" />
        </mxCell>
        <mxCell id="MzUkzwH7Z7s86Nv9Jb5l-70" value="connection() Event" style="html=1;verticalAlign=bottom;labelBackgroundColor=none;endArrow=open;endFill=0;rounded=0;" parent="1" target="MzUkzwH7Z7s86Nv9Jb5l-64" edge="1">
          <mxGeometry x="0.0017" width="160" relative="1" as="geometry">
            <mxPoint x="1310" y="960" as="sourcePoint" />
            <mxPoint x="1470" y="960" as="targetPoint" />
            <mxPoint as="offset" />
          </mxGeometry>
        </mxCell>
        <mxCell id="MzUkzwH7Z7s86Nv9Jb5l-71" value="Response" style="html=1;verticalAlign=bottom;labelBackgroundColor=none;endArrow=open;endFill=0;dashed=1;rounded=0;" parent="1" edge="1">
          <mxGeometry width="160" relative="1" as="geometry">
            <mxPoint x="1605" y="990" as="sourcePoint" />
            <mxPoint x="1309.5" y="990" as="targetPoint" />
          </mxGeometry>
        </mxCell>
        <mxCell id="MzUkzwH7Z7s86Nv9Jb5l-78" value="채팅 수신 use case" style="shape=umlFrame;whiteSpace=wrap;html=1;pointerEvents=0;recursiveResize=0;container=1;collapsible=0;width=290;height=30;" parent="1" vertex="1">
          <mxGeometry x="1200" y="800" width="1120" height="720" as="geometry" />
        </mxCell>
        <mxCell id="MzUkzwH7Z7s86Nv9Jb5l-79" value="Ref" style="shape=umlFrame;whiteSpace=wrap;html=1;pointerEvents=0;recursiveResize=0;container=1;collapsible=0;width=80;height=30;" parent="MzUkzwH7Z7s86Nv9Jb5l-78" vertex="1">
          <mxGeometry x="485" y="180" width="150" height="100" as="geometry" />
        </mxCell>
        <mxCell id="MzUkzwH7Z7s86Nv9Jb5l-80" value="채팅 전송 use case" style="text;html=1;align=center;verticalAlign=middle;resizable=0;points=[];autosize=1;strokeColor=none;fillColor=none;" parent="MzUkzwH7Z7s86Nv9Jb5l-79" vertex="1">
          <mxGeometry x="15" y="35" width="120" height="30" as="geometry" />
        </mxCell>
        <mxCell id="MzUkzwH7Z7s86Nv9Jb5l-82" value="broadcast" style="html=1;verticalAlign=bottom;labelBackgroundColor=none;endArrow=open;endFill=0;dashed=1;rounded=0;" parent="MzUkzwH7Z7s86Nv9Jb5l-79" edge="1">
          <mxGeometry width="160" relative="1" as="geometry">
            <mxPoint x="5" y="50" as="sourcePoint" />
            <mxPoint x="-72.75" y="49.5" as="targetPoint" />
          </mxGeometry>
        </mxCell>
        <mxCell id="MzUkzwH7Z7s86Nv9Jb5l-84" value="receiveChat(text, roomid)" style="html=1;verticalAlign=bottom;labelBackgroundColor=none;endArrow=open;endFill=0;dashed=1;rounded=0;" parent="MzUkzwH7Z7s86Nv9Jb5l-78" edge="1">
          <mxGeometry width="160" relative="1" as="geometry">
            <mxPoint x="405.5" y="280" as="sourcePoint" />
            <mxPoint x="110" y="280" as="targetPoint" />
          </mxGeometry>
        </mxCell>
        <mxCell id="MzUkzwH7Z7s86Nv9Jb5l-85" value="User:user" style="shape=umlLifeline;perimeter=lifelinePerimeter;whiteSpace=wrap;html=1;container=1;dropTarget=0;collapsible=0;recursiveResize=0;outlineConnect=0;portConstraint=eastwest;newEdgeStyle={&quot;edgeStyle&quot;:&quot;elbowEdgeStyle&quot;,&quot;elbow&quot;:&quot;vertical&quot;,&quot;curved&quot;:0,&quot;rounded&quot;:0};" parent="1" vertex="1">
          <mxGeometry x="100" y="1600" width="100" height="320" as="geometry" />
        </mxCell>
        <mxCell id="MzUkzwH7Z7s86Nv9Jb5l-86" value="" style="html=1;points=[[0,0,0,0,5],[0,1,0,0,-5],[1,0,0,0,5],[1,1,0,0,-5]];perimeter=orthogonalPerimeter;outlineConnect=0;targetShapes=umlLifeline;portConstraint=eastwest;newEdgeStyle={&quot;curved&quot;:0,&quot;rounded&quot;:0};fillColor=#808080;" parent="MzUkzwH7Z7s86Nv9Jb5l-85" vertex="1">
          <mxGeometry x="45" y="90" width="10" height="180" as="geometry" />
        </mxCell>
        <mxCell id="MzUkzwH7Z7s86Nv9Jb5l-87" value="Socket:socket" style="shape=umlLifeline;perimeter=lifelinePerimeter;whiteSpace=wrap;html=1;container=1;dropTarget=0;collapsible=0;recursiveResize=0;outlineConnect=0;portConstraint=eastwest;newEdgeStyle={&quot;edgeStyle&quot;:&quot;elbowEdgeStyle&quot;,&quot;elbow&quot;:&quot;vertical&quot;,&quot;curved&quot;:0,&quot;rounded&quot;:0};" parent="1" vertex="1">
          <mxGeometry x="400" y="1600" width="100" height="600" as="geometry" />
        </mxCell>
        <mxCell id="MzUkzwH7Z7s86Nv9Jb5l-88" value="" style="html=1;points=[[0,0,0,0,5],[0,1,0,0,-5],[1,0,0,0,5],[1,1,0,0,-5]];perimeter=orthogonalPerimeter;outlineConnect=0;targetShapes=umlLifeline;portConstraint=eastwest;newEdgeStyle={&quot;curved&quot;:0,&quot;rounded&quot;:0};fillColor=#808080;" parent="MzUkzwH7Z7s86Nv9Jb5l-87" vertex="1">
          <mxGeometry x="45" y="90" width="10" height="480" as="geometry" />
        </mxCell>
        <mxCell id="MzUkzwH7Z7s86Nv9Jb5l-89" value="Server:" style="shape=umlLifeline;perimeter=lifelinePerimeter;whiteSpace=wrap;html=1;container=1;dropTarget=0;collapsible=0;recursiveResize=0;outlineConnect=0;portConstraint=eastwest;newEdgeStyle={&quot;edgeStyle&quot;:&quot;elbowEdgeStyle&quot;,&quot;elbow&quot;:&quot;vertical&quot;,&quot;curved&quot;:0,&quot;rounded&quot;:0};" parent="1" vertex="1">
          <mxGeometry x="700" y="1600" width="100" height="600" as="geometry" />
        </mxCell>
        <mxCell id="MzUkzwH7Z7s86Nv9Jb5l-90" value="" style="html=1;points=[[0,0,0,0,5],[0,1,0,0,-5],[1,0,0,0,5],[1,1,0,0,-5]];perimeter=orthogonalPerimeter;outlineConnect=0;targetShapes=umlLifeline;portConstraint=eastwest;newEdgeStyle={&quot;curved&quot;:0,&quot;rounded&quot;:0};fillColor=#808080;" parent="MzUkzwH7Z7s86Nv9Jb5l-89" vertex="1">
          <mxGeometry x="45" y="180" width="10" height="300" as="geometry" />
        </mxCell>
        <mxCell id="MzUkzwH7Z7s86Nv9Jb5l-91" value="DB:" style="shape=umlLifeline;perimeter=lifelinePerimeter;whiteSpace=wrap;html=1;container=1;dropTarget=0;collapsible=0;recursiveResize=0;outlineConnect=0;portConstraint=eastwest;newEdgeStyle={&quot;edgeStyle&quot;:&quot;elbowEdgeStyle&quot;,&quot;elbow&quot;:&quot;vertical&quot;,&quot;curved&quot;:0,&quot;rounded&quot;:0};" parent="1" vertex="1">
          <mxGeometry x="1000" y="1600" width="100" height="600" as="geometry" />
        </mxCell>
        <mxCell id="MzUkzwH7Z7s86Nv9Jb5l-93" value="connection() Event" style="html=1;verticalAlign=bottom;labelBackgroundColor=none;endArrow=open;endFill=0;rounded=0;" parent="1" target="MzUkzwH7Z7s86Nv9Jb5l-87" edge="1">
          <mxGeometry x="0.0017" width="160" relative="1" as="geometry">
            <mxPoint x="150" y="1720" as="sourcePoint" />
            <mxPoint x="310" y="1720" as="targetPoint" />
            <mxPoint as="offset" />
          </mxGeometry>
        </mxCell>
        <mxCell id="MzUkzwH7Z7s86Nv9Jb5l-94" value="Response" style="html=1;verticalAlign=bottom;labelBackgroundColor=none;endArrow=open;endFill=0;dashed=1;rounded=0;" parent="1" edge="1">
          <mxGeometry width="160" relative="1" as="geometry">
            <mxPoint x="445" y="1750" as="sourcePoint" />
            <mxPoint x="149.5" y="1750" as="targetPoint" />
          </mxGeometry>
        </mxCell>
        <mxCell id="MzUkzwH7Z7s86Nv9Jb5l-95" value="leaveChatRoom(uid, roomid)" style="html=1;verticalAlign=bottom;labelBackgroundColor=none;endArrow=open;endFill=0;rounded=0;" parent="1" edge="1">
          <mxGeometry width="160" relative="1" as="geometry">
            <mxPoint x="150" y="1780" as="sourcePoint" />
            <mxPoint x="450" y="1780" as="targetPoint" />
          </mxGeometry>
        </mxCell>
        <mxCell id="MzUkzwH7Z7s86Nv9Jb5l-96" value="leaveChatRoom(uid, roomid)" style="html=1;verticalAlign=bottom;labelBackgroundColor=none;endArrow=open;endFill=0;rounded=0;" parent="1" edge="1">
          <mxGeometry width="160" relative="1" as="geometry">
            <mxPoint x="450" y="1810" as="sourcePoint" />
            <mxPoint x="750" y="1810" as="targetPoint" />
            <mxPoint as="offset" />
          </mxGeometry>
        </mxCell>
        <mxCell id="MzUkzwH7Z7s86Nv9Jb5l-101" value="채팅방에서 퇴장 use case" style="shape=umlFrame;whiteSpace=wrap;html=1;pointerEvents=0;recursiveResize=0;container=1;collapsible=0;width=290;height=30;" parent="1" vertex="1">
          <mxGeometry x="40" y="1560" width="1120" height="720" as="geometry" />
        </mxCell>
        <mxCell id="MzUkzwH7Z7s86Nv9Jb5l-100" value="Response" style="html=1;verticalAlign=bottom;labelBackgroundColor=none;endArrow=open;endFill=0;dashed=1;rounded=0;" parent="MzUkzwH7Z7s86Nv9Jb5l-101" edge="1">
          <mxGeometry width="160" relative="1" as="geometry">
            <mxPoint x="405.5" y="280" as="sourcePoint" />
            <mxPoint x="110" y="280" as="targetPoint" />
          </mxGeometry>
        </mxCell>
        <mxCell id="MzUkzwH7Z7s86Nv9Jb5l-122" value="" style="shape=umlDestroy;dashed=0;targetShapes=umlLifeline;" parent="MzUkzwH7Z7s86Nv9Jb5l-101" vertex="1">
          <mxGeometry x="90" y="340" width="40" height="40" as="geometry" />
        </mxCell>
        <mxCell id="MzUkzwH7Z7s86Nv9Jb5l-124" value="recentlyUnreadMessages&lt;br&gt;기록 시작(On RAM DB)" style="html=1;verticalAlign=bottom;labelBackgroundColor=none;endArrow=open;endFill=0;rounded=0;" parent="MzUkzwH7Z7s86Nv9Jb5l-101" edge="1">
          <mxGeometry x="0.55" y="-10" width="160" relative="1" as="geometry">
            <mxPoint x="710" y="290" as="sourcePoint" />
            <mxPoint x="710" y="340" as="targetPoint" />
            <Array as="points">
              <mxPoint x="885" y="290" />
              <mxPoint x="885" y="340" />
            </Array>
            <mxPoint as="offset" />
          </mxGeometry>
        </mxCell>
        <mxCell id="MzUkzwH7Z7s86Nv9Jb5l-92" value="" style="html=1;points=[[0,0,0,0,5],[0,1,0,0,-5],[1,0,0,0,5],[1,1,0,0,-5]];perimeter=orthogonalPerimeter;outlineConnect=0;targetShapes=umlLifeline;portConstraint=eastwest;newEdgeStyle={&quot;curved&quot;:0,&quot;rounded&quot;:0};fillColor=#808080;" parent="MzUkzwH7Z7s86Nv9Jb5l-101" vertex="1">
          <mxGeometry x="1005" y="280" width="10" height="120" as="geometry" />
        </mxCell>
        <mxCell id="MzUkzwH7Z7s86Nv9Jb5l-125" value="주기적으로 DB에 백업" style="html=1;verticalAlign=bottom;labelBackgroundColor=none;endArrow=open;endFill=0;rounded=0;" parent="MzUkzwH7Z7s86Nv9Jb5l-101" edge="1">
          <mxGeometry width="160" relative="1" as="geometry">
            <mxPoint x="715" y="380" as="sourcePoint" />
            <mxPoint x="1015" y="380" as="targetPoint" />
            <mxPoint as="offset" />
          </mxGeometry>
        </mxCell>
        <mxCell id="MzUkzwH7Z7s86Nv9Jb5l-105" value="User:user" style="shape=umlLifeline;perimeter=lifelinePerimeter;whiteSpace=wrap;html=1;container=1;dropTarget=0;collapsible=0;recursiveResize=0;outlineConnect=0;portConstraint=eastwest;newEdgeStyle={&quot;edgeStyle&quot;:&quot;elbowEdgeStyle&quot;,&quot;elbow&quot;:&quot;vertical&quot;,&quot;curved&quot;:0,&quot;rounded&quot;:0};" parent="1" vertex="1">
          <mxGeometry x="1260" y="1600" width="100" height="600" as="geometry" />
        </mxCell>
        <mxCell id="MzUkzwH7Z7s86Nv9Jb5l-106" value="" style="html=1;points=[[0,0,0,0,5],[0,1,0,0,-5],[1,0,0,0,5],[1,1,0,0,-5]];perimeter=orthogonalPerimeter;outlineConnect=0;targetShapes=umlLifeline;portConstraint=eastwest;newEdgeStyle={&quot;curved&quot;:0,&quot;rounded&quot;:0};fillColor=#808080;" parent="MzUkzwH7Z7s86Nv9Jb5l-105" vertex="1">
          <mxGeometry x="45" y="90" width="10" height="480" as="geometry" />
        </mxCell>
        <mxCell id="MzUkzwH7Z7s86Nv9Jb5l-107" value="Socket:socket" style="shape=umlLifeline;perimeter=lifelinePerimeter;whiteSpace=wrap;html=1;container=1;dropTarget=0;collapsible=0;recursiveResize=0;outlineConnect=0;portConstraint=eastwest;newEdgeStyle={&quot;edgeStyle&quot;:&quot;elbowEdgeStyle&quot;,&quot;elbow&quot;:&quot;vertical&quot;,&quot;curved&quot;:0,&quot;rounded&quot;:0};" parent="1" vertex="1">
          <mxGeometry x="1560" y="1600" width="100" height="600" as="geometry" />
        </mxCell>
        <mxCell id="MzUkzwH7Z7s86Nv9Jb5l-108" value="" style="html=1;points=[[0,0,0,0,5],[0,1,0,0,-5],[1,0,0,0,5],[1,1,0,0,-5]];perimeter=orthogonalPerimeter;outlineConnect=0;targetShapes=umlLifeline;portConstraint=eastwest;newEdgeStyle={&quot;curved&quot;:0,&quot;rounded&quot;:0};fillColor=#808080;" parent="MzUkzwH7Z7s86Nv9Jb5l-107" vertex="1">
          <mxGeometry x="45" y="90" width="10" height="480" as="geometry" />
        </mxCell>
        <mxCell id="MzUkzwH7Z7s86Nv9Jb5l-109" value="Server:" style="shape=umlLifeline;perimeter=lifelinePerimeter;whiteSpace=wrap;html=1;container=1;dropTarget=0;collapsible=0;recursiveResize=0;outlineConnect=0;portConstraint=eastwest;newEdgeStyle={&quot;edgeStyle&quot;:&quot;elbowEdgeStyle&quot;,&quot;elbow&quot;:&quot;vertical&quot;,&quot;curved&quot;:0,&quot;rounded&quot;:0};" parent="1" vertex="1">
          <mxGeometry x="1860" y="1600" width="100" height="600" as="geometry" />
        </mxCell>
        <mxCell id="MzUkzwH7Z7s86Nv9Jb5l-111" value="DB:" style="shape=umlLifeline;perimeter=lifelinePerimeter;whiteSpace=wrap;html=1;container=1;dropTarget=0;collapsible=0;recursiveResize=0;outlineConnect=0;portConstraint=eastwest;newEdgeStyle={&quot;edgeStyle&quot;:&quot;elbowEdgeStyle&quot;,&quot;elbow&quot;:&quot;vertical&quot;,&quot;curved&quot;:0,&quot;rounded&quot;:0};" parent="1" vertex="1">
          <mxGeometry x="2160" y="1600" width="100" height="600" as="geometry" />
        </mxCell>
        <mxCell id="MzUkzwH7Z7s86Nv9Jb5l-112" value="" style="html=1;points=[[0,0,0,0,5],[0,1,0,0,-5],[1,0,0,0,5],[1,1,0,0,-5]];perimeter=orthogonalPerimeter;outlineConnect=0;targetShapes=umlLifeline;portConstraint=eastwest;newEdgeStyle={&quot;curved&quot;:0,&quot;rounded&quot;:0};fillColor=#808080;" parent="MzUkzwH7Z7s86Nv9Jb5l-111" vertex="1">
          <mxGeometry x="45" y="180" width="10" height="120" as="geometry" />
        </mxCell>
        <mxCell id="MzUkzwH7Z7s86Nv9Jb5l-116" value="채팅방 목록 새로고침 use case" style="shape=umlFrame;whiteSpace=wrap;html=1;pointerEvents=0;recursiveResize=0;container=1;collapsible=0;width=290;height=30;" parent="1" vertex="1">
          <mxGeometry x="1200" y="1560" width="1120" height="720" as="geometry" />
        </mxCell>
        <mxCell id="MzUkzwH7Z7s86Nv9Jb5l-110" value="" style="html=1;points=[[0,0,0,0,5],[0,1,0,0,-5],[1,0,0,0,5],[1,1,0,0,-5]];perimeter=orthogonalPerimeter;outlineConnect=0;targetShapes=umlLifeline;portConstraint=eastwest;newEdgeStyle={&quot;curved&quot;:0,&quot;rounded&quot;:0};fillColor=#808080;" parent="MzUkzwH7Z7s86Nv9Jb5l-116" vertex="1">
          <mxGeometry x="705" y="130" width="10" height="300" as="geometry" />
        </mxCell>
        <mxCell id="MzUkzwH7Z7s86Nv9Jb5l-129" value="recentlyUnreadMessages&lt;br&gt;기록 시작(On RAM DB)" style="html=1;verticalAlign=bottom;labelBackgroundColor=none;endArrow=open;endFill=0;rounded=0;" parent="MzUkzwH7Z7s86Nv9Jb5l-116" edge="1">
          <mxGeometry x="0.55" y="-10" width="160" relative="1" as="geometry">
            <mxPoint x="715" y="140" as="sourcePoint" />
            <mxPoint x="715" y="190" as="targetPoint" />
            <Array as="points">
              <mxPoint x="890" y="140" />
              <mxPoint x="890" y="190" />
            </Array>
            <mxPoint as="offset" />
          </mxGeometry>
        </mxCell>
        <mxCell id="MzUkzwH7Z7s86Nv9Jb5l-130" value="주기적으로 DB에 백업" style="html=1;verticalAlign=bottom;labelBackgroundColor=none;endArrow=open;endFill=0;rounded=0;" parent="MzUkzwH7Z7s86Nv9Jb5l-116" edge="1">
          <mxGeometry width="160" relative="1" as="geometry">
            <mxPoint x="715" y="240" as="sourcePoint" />
            <mxPoint x="1015" y="240" as="targetPoint" />
            <mxPoint as="offset" />
          </mxGeometry>
        </mxCell>
        <mxCell id="MzUkzwH7Z7s86Nv9Jb5l-131" value="Push Notification" style="html=1;verticalAlign=bottom;labelBackgroundColor=none;endArrow=open;endFill=0;dashed=1;rounded=0;" parent="MzUkzwH7Z7s86Nv9Jb5l-116" target="MzUkzwH7Z7s86Nv9Jb5l-106" edge="1">
          <mxGeometry x="0.5108" width="160" relative="1" as="geometry">
            <mxPoint x="707.75" y="279.5" as="sourcePoint" />
            <mxPoint x="412.25" y="279.5" as="targetPoint" />
            <mxPoint as="offset" />
          </mxGeometry>
        </mxCell>
        <mxCell id="MzUkzwH7Z7s86Nv9Jb5l-132" value="connection() Event" style="html=1;verticalAlign=bottom;labelBackgroundColor=none;endArrow=open;endFill=0;rounded=0;" parent="MzUkzwH7Z7s86Nv9Jb5l-116" edge="1">
          <mxGeometry x="0.0017" width="160" relative="1" as="geometry">
            <mxPoint x="110" y="320" as="sourcePoint" />
            <mxPoint x="410" y="320" as="targetPoint" />
            <mxPoint as="offset" />
          </mxGeometry>
        </mxCell>
        <mxCell id="MzUkzwH7Z7s86Nv9Jb5l-133" value="Response" style="html=1;verticalAlign=bottom;labelBackgroundColor=none;endArrow=open;endFill=0;dashed=1;rounded=0;" parent="MzUkzwH7Z7s86Nv9Jb5l-116" edge="1">
          <mxGeometry width="160" relative="1" as="geometry">
            <mxPoint x="405.5" y="359.5" as="sourcePoint" />
            <mxPoint x="110" y="359.5" as="targetPoint" />
          </mxGeometry>
        </mxCell>
        <mxCell id="MzUkzwH7Z7s86Nv9Jb5l-134" value="chatList(uid) Event" style="html=1;verticalAlign=bottom;labelBackgroundColor=none;endArrow=open;endFill=0;rounded=0;" parent="MzUkzwH7Z7s86Nv9Jb5l-116" edge="1">
          <mxGeometry width="160" relative="1" as="geometry">
            <mxPoint x="110" y="400" as="sourcePoint" />
            <mxPoint x="410" y="400" as="targetPoint" />
          </mxGeometry>
        </mxCell>
        <mxCell id="MzUkzwH7Z7s86Nv9Jb5l-135" value="Ref" style="shape=umlFrame;whiteSpace=wrap;html=1;pointerEvents=0;recursiveResize=0;container=1;collapsible=0;width=80;height=30;" parent="MzUkzwH7Z7s86Nv9Jb5l-116" vertex="1">
          <mxGeometry x="485" y="380" width="150" height="100" as="geometry" />
        </mxCell>
        <mxCell id="MzUkzwH7Z7s86Nv9Jb5l-136" value="채팅방 목록에 입장&lt;br&gt;및 새로고침&lt;br&gt;use case" style="text;html=1;align=center;verticalAlign=middle;resizable=0;points=[];autosize=1;strokeColor=none;fillColor=none;" parent="MzUkzwH7Z7s86Nv9Jb5l-135" vertex="1">
          <mxGeometry x="15" y="30" width="120" height="60" as="geometry" />
        </mxCell>
        <mxCell id="MzUkzwH7Z7s86Nv9Jb5l-137" value="broadcast(roomid, text)" style="html=1;verticalAlign=bottom;labelBackgroundColor=none;endArrow=open;endFill=0;rounded=0;entryX=0.033;entryY=0.6;entryDx=0;entryDy=0;entryPerimeter=0;" parent="MzUkzwH7Z7s86Nv9Jb5l-116" target="MzUkzwH7Z7s86Nv9Jb5l-135" edge="1">
          <mxGeometry x="1" y="70" width="160" relative="1" as="geometry">
            <mxPoint x="410" y="440" as="sourcePoint" />
            <mxPoint x="480" y="440" as="targetPoint" />
            <mxPoint as="offset" />
          </mxGeometry>
        </mxCell>
        <mxCell id="MzUkzwH7Z7s86Nv9Jb5l-138" value="Response" style="html=1;verticalAlign=bottom;labelBackgroundColor=none;endArrow=open;endFill=0;dashed=1;rounded=0;" parent="MzUkzwH7Z7s86Nv9Jb5l-116" edge="1">
          <mxGeometry width="160" relative="1" as="geometry">
            <mxPoint x="405.5" y="480" as="sourcePoint" />
            <mxPoint x="110" y="480" as="targetPoint" />
          </mxGeometry>
        </mxCell>
        <mxCell id="ZicjYKxQDIGUz3Ac8g5z-1" value="Doctor:adoctor" style="shape=umlLifeline;perimeter=lifelinePerimeter;whiteSpace=wrap;html=1;container=1;dropTarget=0;collapsible=0;recursiveResize=0;outlineConnect=0;portConstraint=eastwest;newEdgeStyle={&quot;edgeStyle&quot;:&quot;elbowEdgeStyle&quot;,&quot;elbow&quot;:&quot;vertical&quot;,&quot;curved&quot;:0,&quot;rounded&quot;:0};" vertex="1" parent="1">
          <mxGeometry x="100" y="2360" width="100" height="600" as="geometry" />
        </mxCell>
        <mxCell id="ZicjYKxQDIGUz3Ac8g5z-2" value="" style="html=1;points=[[0,0,0,0,5],[0,1,0,0,-5],[1,0,0,0,5],[1,1,0,0,-5]];perimeter=orthogonalPerimeter;outlineConnect=0;targetShapes=umlLifeline;portConstraint=eastwest;newEdgeStyle={&quot;curved&quot;:0,&quot;rounded&quot;:0};fillColor=#808080;" vertex="1" parent="ZicjYKxQDIGUz3Ac8g5z-1">
          <mxGeometry x="45" y="90" width="10" height="480" as="geometry" />
        </mxCell>
        <mxCell id="ZicjYKxQDIGUz3Ac8g5z-3" value="User:auser" style="shape=umlLifeline;perimeter=lifelinePerimeter;whiteSpace=wrap;html=1;container=1;dropTarget=0;collapsible=0;recursiveResize=0;outlineConnect=0;portConstraint=eastwest;newEdgeStyle={&quot;edgeStyle&quot;:&quot;elbowEdgeStyle&quot;,&quot;elbow&quot;:&quot;vertical&quot;,&quot;curved&quot;:0,&quot;rounded&quot;:0};" vertex="1" parent="1">
          <mxGeometry x="400" y="2360" width="100" height="600" as="geometry" />
        </mxCell>
        <mxCell id="ZicjYKxQDIGUz3Ac8g5z-4" value="" style="html=1;points=[[0,0,0,0,5],[0,1,0,0,-5],[1,0,0,0,5],[1,1,0,0,-5]];perimeter=orthogonalPerimeter;outlineConnect=0;targetShapes=umlLifeline;portConstraint=eastwest;newEdgeStyle={&quot;curved&quot;:0,&quot;rounded&quot;:0};fillColor=#808080;" vertex="1" parent="ZicjYKxQDIGUz3Ac8g5z-3">
          <mxGeometry x="45" y="90" width="10" height="480" as="geometry" />
        </mxCell>
        <mxCell id="ZicjYKxQDIGUz3Ac8g5z-5" value="Server:" style="shape=umlLifeline;perimeter=lifelinePerimeter;whiteSpace=wrap;html=1;container=1;dropTarget=0;collapsible=0;recursiveResize=0;outlineConnect=0;portConstraint=eastwest;newEdgeStyle={&quot;edgeStyle&quot;:&quot;elbowEdgeStyle&quot;,&quot;elbow&quot;:&quot;vertical&quot;,&quot;curved&quot;:0,&quot;rounded&quot;:0};" vertex="1" parent="1">
          <mxGeometry x="700" y="2360" width="100" height="600" as="geometry" />
        </mxCell>
        <mxCell id="ZicjYKxQDIGUz3Ac8g5z-7" value="DB:" style="shape=umlLifeline;perimeter=lifelinePerimeter;whiteSpace=wrap;html=1;container=1;dropTarget=0;collapsible=0;recursiveResize=0;outlineConnect=0;portConstraint=eastwest;newEdgeStyle={&quot;edgeStyle&quot;:&quot;elbowEdgeStyle&quot;,&quot;elbow&quot;:&quot;vertical&quot;,&quot;curved&quot;:0,&quot;rounded&quot;:0};" vertex="1" parent="1">
          <mxGeometry x="1000" y="2360" width="100" height="600" as="geometry" />
        </mxCell>
        <mxCell id="ZicjYKxQDIGUz3Ac8g5z-8" value="환자 방문 확인 (chatid)" style="html=1;verticalAlign=bottom;labelBackgroundColor=none;endArrow=open;endFill=0;rounded=0;" edge="1" parent="1" target="ZicjYKxQDIGUz3Ac8g5z-6">
          <mxGeometry x="-0.3613" width="160" relative="1" as="geometry">
            <mxPoint x="150" y="2480" as="sourcePoint" />
            <mxPoint x="310" y="2480" as="targetPoint" />
            <mxPoint as="offset" />
          </mxGeometry>
        </mxCell>
        <mxCell id="ZicjYKxQDIGUz3Ac8g5z-12" value="환자 리뷰 작성 허가 use case" style="shape=umlFrame;whiteSpace=wrap;html=1;pointerEvents=0;recursiveResize=0;container=1;collapsible=0;width=290;height=30;" vertex="1" parent="1">
          <mxGeometry x="40" y="2320" width="1120" height="720" as="geometry" />
        </mxCell>
        <mxCell id="ZicjYKxQDIGUz3Ac8g5z-16" value="" style="html=1;points=[[0,0,0,0,5],[0,1,0,0,-5],[1,0,0,0,5],[1,1,0,0,-5]];perimeter=orthogonalPerimeter;outlineConnect=0;targetShapes=umlLifeline;portConstraint=eastwest;newEdgeStyle={&quot;curved&quot;:0,&quot;rounded&quot;:0};fillColor=#808080;" vertex="1" parent="ZicjYKxQDIGUz3Ac8g5z-12">
          <mxGeometry x="1005" y="230" width="10" height="120" as="geometry" />
        </mxCell>
        <mxCell id="ZicjYKxQDIGUz3Ac8g5z-6" value="" style="html=1;points=[[0,0,0,0,5],[0,1,0,0,-5],[1,0,0,0,5],[1,1,0,0,-5]];perimeter=orthogonalPerimeter;outlineConnect=0;targetShapes=umlLifeline;portConstraint=eastwest;newEdgeStyle={&quot;curved&quot;:0,&quot;rounded&quot;:0};fillColor=#808080;" vertex="1" parent="ZicjYKxQDIGUz3Ac8g5z-12">
          <mxGeometry x="705" y="130" width="10" height="280" as="geometry" />
        </mxCell>
        <mxCell id="ZicjYKxQDIGUz3Ac8g5z-18" value="chatid&lt;div&gt;유효성 검사&lt;/div&gt;" style="html=1;verticalAlign=bottom;labelBackgroundColor=none;endArrow=open;endFill=0;rounded=0;" edge="1" parent="ZicjYKxQDIGUz3Ac8g5z-12">
          <mxGeometry x="0.55" y="-10" width="160" relative="1" as="geometry">
            <mxPoint x="715" y="180" as="sourcePoint" />
            <mxPoint x="715" y="230" as="targetPoint" />
            <Array as="points">
              <mxPoint x="890" y="180" />
              <mxPoint x="890" y="230" />
            </Array>
            <mxPoint as="offset" />
          </mxGeometry>
        </mxCell>
        <mxCell id="ZicjYKxQDIGUz3Ac8g5z-22" value="chatid 채팅방에 대해 user 리뷰 권한 편집" style="html=1;verticalAlign=bottom;labelBackgroundColor=none;endArrow=open;endFill=0;rounded=0;" edge="1" parent="ZicjYKxQDIGUz3Ac8g5z-12">
          <mxGeometry width="160" relative="1" as="geometry">
            <mxPoint x="715" y="270" as="sourcePoint" />
            <mxPoint x="1015" y="270" as="targetPoint" />
            <mxPoint as="offset" />
          </mxGeometry>
        </mxCell>
        <mxCell id="ZicjYKxQDIGUz3Ac8g5z-23" value="Response" style="html=1;verticalAlign=bottom;labelBackgroundColor=none;endArrow=open;endFill=0;dashed=1;rounded=0;" edge="1" parent="ZicjYKxQDIGUz3Ac8g5z-12">
          <mxGeometry width="160" relative="1" as="geometry">
            <mxPoint x="1005" y="320" as="sourcePoint" />
            <mxPoint x="709.5" y="320" as="targetPoint" />
          </mxGeometry>
        </mxCell>
        <mxCell id="ZicjYKxQDIGUz3Ac8g5z-24" value="Response" style="html=1;verticalAlign=bottom;labelBackgroundColor=none;endArrow=open;endFill=0;dashed=1;rounded=0;" edge="1" parent="ZicjYKxQDIGUz3Ac8g5z-12" target="ZicjYKxQDIGUz3Ac8g5z-2">
          <mxGeometry width="160" relative="1" as="geometry">
            <mxPoint x="707.75" y="370" as="sourcePoint" />
            <mxPoint x="412.25" y="370" as="targetPoint" />
          </mxGeometry>
        </mxCell>
        <mxCell id="ZicjYKxQDIGUz3Ac8g5z-39" value="Doctor:adoctor" style="shape=umlLifeline;perimeter=lifelinePerimeter;whiteSpace=wrap;html=1;container=1;dropTarget=0;collapsible=0;recursiveResize=0;outlineConnect=0;portConstraint=eastwest;newEdgeStyle={&quot;edgeStyle&quot;:&quot;elbowEdgeStyle&quot;,&quot;elbow&quot;:&quot;vertical&quot;,&quot;curved&quot;:0,&quot;rounded&quot;:0};" vertex="1" parent="1">
          <mxGeometry x="1260" y="2360" width="100" height="600" as="geometry" />
        </mxCell>
        <mxCell id="ZicjYKxQDIGUz3Ac8g5z-40" value="" style="html=1;points=[[0,0,0,0,5],[0,1,0,0,-5],[1,0,0,0,5],[1,1,0,0,-5]];perimeter=orthogonalPerimeter;outlineConnect=0;targetShapes=umlLifeline;portConstraint=eastwest;newEdgeStyle={&quot;curved&quot;:0,&quot;rounded&quot;:0};fillColor=#808080;" vertex="1" parent="ZicjYKxQDIGUz3Ac8g5z-39">
          <mxGeometry x="45" y="90" width="10" height="480" as="geometry" />
        </mxCell>
        <mxCell id="ZicjYKxQDIGUz3Ac8g5z-41" value="User:auser" style="shape=umlLifeline;perimeter=lifelinePerimeter;whiteSpace=wrap;html=1;container=1;dropTarget=0;collapsible=0;recursiveResize=0;outlineConnect=0;portConstraint=eastwest;newEdgeStyle={&quot;edgeStyle&quot;:&quot;elbowEdgeStyle&quot;,&quot;elbow&quot;:&quot;vertical&quot;,&quot;curved&quot;:0,&quot;rounded&quot;:0};" vertex="1" parent="1">
          <mxGeometry x="1560" y="2360" width="100" height="600" as="geometry" />
        </mxCell>
        <mxCell id="ZicjYKxQDIGUz3Ac8g5z-42" value="" style="html=1;points=[[0,0,0,0,5],[0,1,0,0,-5],[1,0,0,0,5],[1,1,0,0,-5]];perimeter=orthogonalPerimeter;outlineConnect=0;targetShapes=umlLifeline;portConstraint=eastwest;newEdgeStyle={&quot;curved&quot;:0,&quot;rounded&quot;:0};fillColor=#808080;" vertex="1" parent="ZicjYKxQDIGUz3Ac8g5z-41">
          <mxGeometry x="45" y="90" width="10" height="480" as="geometry" />
        </mxCell>
        <mxCell id="ZicjYKxQDIGUz3Ac8g5z-43" value="Server:" style="shape=umlLifeline;perimeter=lifelinePerimeter;whiteSpace=wrap;html=1;container=1;dropTarget=0;collapsible=0;recursiveResize=0;outlineConnect=0;portConstraint=eastwest;newEdgeStyle={&quot;edgeStyle&quot;:&quot;elbowEdgeStyle&quot;,&quot;elbow&quot;:&quot;vertical&quot;,&quot;curved&quot;:0,&quot;rounded&quot;:0};" vertex="1" parent="1">
          <mxGeometry x="1860" y="2360" width="100" height="600" as="geometry" />
        </mxCell>
        <mxCell id="ZicjYKxQDIGUz3Ac8g5z-44" value="DB:" style="shape=umlLifeline;perimeter=lifelinePerimeter;whiteSpace=wrap;html=1;container=1;dropTarget=0;collapsible=0;recursiveResize=0;outlineConnect=0;portConstraint=eastwest;newEdgeStyle={&quot;edgeStyle&quot;:&quot;elbowEdgeStyle&quot;,&quot;elbow&quot;:&quot;vertical&quot;,&quot;curved&quot;:0,&quot;rounded&quot;:0};" vertex="1" parent="1">
          <mxGeometry x="2160" y="2360" width="100" height="600" as="geometry" />
        </mxCell>
        <mxCell id="ZicjYKxQDIGUz3Ac8g5z-46" value="환자 리뷰 작성 가능 상태 확인 use case" style="shape=umlFrame;whiteSpace=wrap;html=1;pointerEvents=0;recursiveResize=0;container=1;collapsible=0;width=290;height=30;" vertex="1" parent="1">
          <mxGeometry x="1200" y="2320" width="1120" height="720" as="geometry" />
        </mxCell>
        <mxCell id="ZicjYKxQDIGUz3Ac8g5z-47" value="" style="html=1;points=[[0,0,0,0,5],[0,1,0,0,-5],[1,0,0,0,5],[1,1,0,0,-5]];perimeter=orthogonalPerimeter;outlineConnect=0;targetShapes=umlLifeline;portConstraint=eastwest;newEdgeStyle={&quot;curved&quot;:0,&quot;rounded&quot;:0};fillColor=#808080;" vertex="1" parent="ZicjYKxQDIGUz3Ac8g5z-46">
          <mxGeometry x="1005" y="230" width="10" height="120" as="geometry" />
        </mxCell>
        <mxCell id="ZicjYKxQDIGUz3Ac8g5z-48" value="" style="html=1;points=[[0,0,0,0,5],[0,1,0,0,-5],[1,0,0,0,5],[1,1,0,0,-5]];perimeter=orthogonalPerimeter;outlineConnect=0;targetShapes=umlLifeline;portConstraint=eastwest;newEdgeStyle={&quot;curved&quot;:0,&quot;rounded&quot;:0};fillColor=#808080;" vertex="1" parent="ZicjYKxQDIGUz3Ac8g5z-46">
          <mxGeometry x="705" y="130" width="10" height="280" as="geometry" />
        </mxCell>
        <mxCell id="ZicjYKxQDIGUz3Ac8g5z-49" value="chatid&lt;div&gt;유효성 검사&lt;/div&gt;" style="html=1;verticalAlign=bottom;labelBackgroundColor=none;endArrow=open;endFill=0;rounded=0;" edge="1" parent="ZicjYKxQDIGUz3Ac8g5z-46">
          <mxGeometry x="0.55" y="-10" width="160" relative="1" as="geometry">
            <mxPoint x="715" y="180" as="sourcePoint" />
            <mxPoint x="715" y="230" as="targetPoint" />
            <Array as="points">
              <mxPoint x="890" y="180" />
              <mxPoint x="890" y="230" />
            </Array>
            <mxPoint as="offset" />
          </mxGeometry>
        </mxCell>
        <mxCell id="ZicjYKxQDIGUz3Ac8g5z-50" value="chatid 채팅방에 대해 user 리뷰 권한 요청" style="html=1;verticalAlign=bottom;labelBackgroundColor=none;endArrow=open;endFill=0;rounded=0;" edge="1" parent="ZicjYKxQDIGUz3Ac8g5z-46">
          <mxGeometry width="160" relative="1" as="geometry">
            <mxPoint x="715" y="270" as="sourcePoint" />
            <mxPoint x="1015" y="270" as="targetPoint" />
            <mxPoint as="offset" />
          </mxGeometry>
        </mxCell>
        <mxCell id="ZicjYKxQDIGUz3Ac8g5z-51" value="Response" style="html=1;verticalAlign=bottom;labelBackgroundColor=none;endArrow=open;endFill=0;dashed=1;rounded=0;" edge="1" parent="ZicjYKxQDIGUz3Ac8g5z-46">
          <mxGeometry width="160" relative="1" as="geometry">
            <mxPoint x="1005" y="320" as="sourcePoint" />
            <mxPoint x="709.5" y="320" as="targetPoint" />
          </mxGeometry>
        </mxCell>
        <mxCell id="ZicjYKxQDIGUz3Ac8g5z-52" value="Response" style="html=1;verticalAlign=bottom;labelBackgroundColor=none;endArrow=open;endFill=0;dashed=1;rounded=0;" edge="1" parent="ZicjYKxQDIGUz3Ac8g5z-46">
          <mxGeometry width="160" relative="1" as="geometry">
            <mxPoint x="707.75" y="370" as="sourcePoint" />
            <mxPoint x="420" y="370" as="targetPoint" />
          </mxGeometry>
        </mxCell>
        <mxCell id="ZicjYKxQDIGUz3Ac8g5z-53" value="chatid 채팅방에 대한 리뷰&lt;span style=&quot;background-color: transparent; color: light-dark(rgb(0, 0, 0), rgb(255, 255, 255));&quot;&gt;&amp;nbsp;권한 있는지 요청&lt;/span&gt;" style="html=1;verticalAlign=bottom;labelBackgroundColor=none;endArrow=open;endFill=0;rounded=0;" edge="1" parent="ZicjYKxQDIGUz3Ac8g5z-46">
          <mxGeometry width="160" relative="1" as="geometry">
            <mxPoint x="415" y="160" as="sourcePoint" />
            <mxPoint x="715" y="160" as="targetPoint" />
            <mxPoint as="offset" />
          </mxGeometry>
        </mxCell>
      </root>
    </mxGraphModel>
  </diagram>
</mxfile>
